<svg width="51" height="52" viewBox="0 0 51 52" fill="none" xmlns="http://www.w3.org/2000/svg">
<g clip-path="url(#clip0_1104_472)">
<path fill-rule="evenodd" clip-rule="evenodd" d="M42.0261 9.91368C42.5513 9.69266 43.126 9.61643 43.6906 9.69292C44.2552 9.76942 44.789 9.99585 45.2363 10.3486C45.6837 10.7014 46.0284 11.1677 46.2344 11.6989C46.4404 12.23 46.5003 12.8067 46.4079 13.3689L41.5884 42.6026C41.1209 45.4224 38.0269 47.0396 35.4407 45.6349C33.2775 44.4598 30.0645 42.6493 27.1745 40.7602C25.7295 39.8146 21.3031 36.7864 21.8471 34.6317C22.3146 32.7893 29.7521 25.8661 34.0021 21.7499C35.6702 20.1328 34.9095 19.1999 32.9396 20.6874C28.0457 24.3807 20.1939 29.9971 17.5971 31.5781C15.3064 32.9721 14.1121 33.2101 12.6841 32.9721C10.0789 32.5386 7.66275 31.8671 5.69075 31.0489C3.026 29.9439 3.15562 26.2804 5.68862 25.2137L42.0261 9.91368Z" fill="white"/>
</g>
<defs>
<clipPath id="clip0_1104_472">
<rect width="51" height="51" fill="white" transform="translate(0 0.5)"/>
</clipPath>
</defs>
</svg>
